# xmcd
#
# Track frame offsets: 
#        150
#        18330
#        35122
#        54730
#        78224
#        96452
#        118482
#        140681
#        160655
#        181756
#        205898
#        215059
#        239286
#
# Disc length: 3515 seconds
#
# Revision: 0
# Processed by: cddbd v1.5.2PL0 Copyright (c) Steve Scherf et al.
# Submitted via: ExactAudioCopyFreeDBPlugin 1.0
#
DISCID=bd0db90d
DTITLE=John Legend - Once Again
DYEAR=2006
DGENRE=Blues
TTITLE0=Save room
TTITLE1=Heaven
TTITLE2=Stereo
TTITLE3=Show me
TTITLE4=Each day gets better
TTITLE5=P.D.A. (we just don't care)
TTITLE6=Slow dance
TTITLE7=Again
TTITLE8=Maxine
TTITLE9=Where did my baby go
TTITLE10=Maxine's interlude
TTITLE11=Another Again
TTITLE12=Coming home
EXTD=
EXTT0=
EXTT1=
EXTT2=
EXTT3=
EXTT4=
EXTT5=
EXTT6=
EXTT7=
EXTT8=
EXTT9=
EXTT10=
EXTT11=
EXTT12=
PLAYORDER=
